<svg width="128" height="128" viewBox="0 0 33.867 33.867" xmlns="http://www.w3.org/2000/svg"><g style="display:inline"><path style="opacity:.88;fill:#fff;fill-opacity:0;stroke:#777a44;stroke-width:2.11667" d="M31.75 16.107a15.749 15.749 0 0 1-15.749 15.749A15.749 15.749 0 0 1 .252 16.107 15.749 15.749 0 0 1 16.001.358 15.749 15.749 0 0 1 31.75 16.107Z" fill="none" transform="translate(.932 .826)"/></g><g style="font-size:10.8414px;font-family:Arial;-inkscape-font-specification:Arial;opacity:1;fill:#777a44;stroke:#777a44;stroke-width:.508986"><path d="M15.05 19.57c.704 0 1.322-.38 1.788-.835h.032l.087.694h.802v-8.63h-.975v2.266l.043 1.02c-.52-.434-.965-.695-1.659-.695-1.344 0-2.547 1.193-2.547 3.101 0 1.962.954 3.079 2.428 3.079zm.216-.824c-1.04 0-1.626-.846-1.626-2.266 0-1.344.748-2.255 1.702-2.255.488 0 .932.174 1.442.618v3.09c-.499.542-.976.813-1.518.813z" style="font-family:'Noto Sans TC';-inkscape-font-specification:'Noto Sans TC';stroke-width:.508988" transform="matrix(1.04674 0 0 .95534 .932 .826)" aria-label="d"/></g><g style="font-size:19.7556px;font-family:Arial;-inkscape-font-specification:Arial;opacity:.8;fill:#002147;stroke:#002147;stroke-width:.529998"><path d="M6.203-19.918q1.013-1.273 1.582-1.678.772-.56 1.63-.56 1.013 0 1.891.733.888.734.888 2.364 0 1.138-.328 1.794-.328.646-1.023 1.042-.694.395-1.427.395-.859 0-1.63-.55-.57-.414-1.583-1.688-1.312 1.65-2.787 1.65-.975 0-1.679-.733-.694-.743-.694-1.843 0-1.09.694-1.833.704-.742 1.679-.742 1.475 0 2.787 1.65zM6.87-19q.84 1.302 1.534 1.784.443.319.993.319.733 0 1.225-.54.502-.54.502-1.525 0-1.022-.511-1.563-.502-.54-1.254-.54-.473 0-.888.27-.56.377-1.601 1.795zm-1.331.01q-.772-.965-1.235-1.236-.463-.28-.887-.28-.56 0-.936.396-.367.396-.367 1.09 0 .685.386 1.1.386.405.936.405.974 0 2.103-1.476z" style="stroke-width:.53" transform="rotate(140.856 1.306 2.89)" aria-label="∞"/></g><g style="font-size:19.7556px;font-family:Arial;-inkscape-font-specification:Arial;display:inline;opacity:.8;fill:#5b92e5;stroke:#5b92e5;stroke-width:.529998"><path d="M10.106 15.82q1.013-1.274 1.582-1.68.772-.559 1.63-.559 1.013 0 1.891.733.888.734.888 2.364 0 1.138-.328 1.794-.328.646-1.023 1.042-.694.395-1.427.395-.859 0-1.63-.55-.57-.414-1.583-1.688-1.312 1.65-2.787 1.65-.975 0-1.679-.733-.694-.743-.694-1.843 0-1.09.694-1.833.704-.742 1.679-.742 1.475 0 2.787 1.65zm.666.916q.84 1.302 1.534 1.784.443.319.993.319.733 0 1.225-.54.502-.54.502-1.525 0-1.022-.511-1.563-.502-.54-1.254-.54-.473 0-.888.27-.56.377-1.601 1.795zm-1.331.01q-.772-.965-1.235-1.235-.463-.28-.887-.28-.56 0-.936.395-.367.396-.367 1.09 0 .685.386 1.1.386.405.936.405.974 0 2.103-1.476z" style="stroke-width:.53" transform="rotate(-39.144 8.13 -3.674)" aria-label="∞"/></g><g style="font-size:19.7556px;font-family:Arial;-inkscape-font-specification:Arial;display:inline;opacity:1;fill:#002625;stroke:#002625;stroke-width:.529998"><path d="M26.047-3.766q1.013-1.273 1.582-1.678.772-.56 1.63-.56 1.013 0 1.891.733.888.734.888 2.364 0 1.138-.328 1.794-.328.646-1.023 1.042-.694.395-1.427.395-.859 0-1.63-.55-.57-.414-1.583-1.688-1.312 1.65-2.787 1.65-.975 0-1.679-.733-.694-.743-.694-1.843 0-1.09.694-1.833.704-.742 1.679-.742 1.475 0 2.787 1.65zm.666.917q.84 1.302 1.534 1.784.443.319.993.319.733 0 1.225-.54.502-.54.502-1.525 0-1.022-.511-1.563-.502-.54-1.254-.54-.473 0-.888.27-.56.377-1.601 1.795zm-1.331.01q-.772-.965-1.235-1.235-.463-.28-.887-.28-.56 0-.936.395-.367.396-.367 1.09 0 .685.386 1.1.386.405.936.405.974 0 2.103-1.476z" style="stroke-width:.53" transform="scale(1 -1) rotate(-39.144 -3.986 -7.982)" aria-label="∞"/></g><g style="font-size:19.7556px;font-family:Arial;-inkscape-font-specification:Arial;display:inline;opacity:.8;fill:#006d69;stroke:#006d69;stroke-width:.529998"><path d="M-9.738-.333q1.013-1.273 1.582-1.678.772-.56 1.63-.56 1.013 0 1.891.733.888.734.888 2.364 0 1.138-.328 1.794-.328.646-1.023 1.042-.694.395-1.427.395-.859 0-1.63-.55-.57-.414-1.583-1.688-1.312 1.65-2.787 1.65-.975 0-1.679-.733-.694-.743-.694-1.843 0-1.09.694-1.833.704-.742 1.679-.742 1.475 0 2.787 1.65zm.666.917q.84 1.302 1.534 1.784.443.319.993.319.733 0 1.225-.54.502-.54.502-1.525 0-1.022-.511-1.563-.502-.54-1.254-.54-.473 0-.888.27-.56.377-1.601 1.795zm-1.331.01q-.772-.965-1.235-1.235-.463-.28-.887-.28-.56 0-.936.395-.367.396-.367 1.09 0 .685.386 1.1.386.405.936.405.974 0 2.103-1.476z" style="stroke-width:.53" transform="scale(-1 1) rotate(-39.144 3.986 7.982)" aria-label="∞"/></g></svg>